<?xml version="1.0" encoding="utf-8"?>
<!DOCTYPE svg PUBLIC "-//W3C//DTD SVG 1.0//EN" "http://www.w3.org/TR/2001/REC-SVG-20010904/DTD/svg10.dtd">
<svg version="1.0" xmlns="http://www.w3.org/2000/svg" width="360px" height="360px" viewBox="0 0 360 360" preserveAspectRatio="xMidYMid meet">
 <g fill="#ccc">
  <path d="M 175 325.5 l 0 -8.5 -4.9 0 c -16.2 0 -41.9 -8 -59.9 -18.6 -37.7 -22.3 -63.5 -62.7 -67 -104.8 l -0.7 -8.1 -8.2 -0.3 -8.3 -0.3 0 -4.9 0 -4.9 8.3 -0.3 8.2 -0.3 0.7 -8 c 4.3 -50.2 38.8 -95.9 86.3 -114.5 12.1 -4.7 23.9 -7.7 33.8 -8.5 12.6 -1.1 11.7 -0.3 11.7 -9.8 l 0 -8.2 5 0 5 0 0 8.1 c 0 9.1 0.2 9.4 7 9.4 2 0 7.6 0.7 12.2 1.5 38.9 6.8 74.5 31.8 94.9 66.6 9.2 15.8 16 37 17.6 54.9 l 0.8 8.5 8.3 0.3 8.2 0.3 0 4.9 0 4.9 -8.2 0.3 -8.3 0.3 -0.7 8 c -4.1 45.8 -32.6 87.4 -74.5 108.8 -16.7 8.5 -38.8 14.7 -52.4 14.7 l -4.9 0 0 8.5 0 8.5 -5 0 -5 0 0 -8.5 z  m 0 -27.5 l 0 -10 -4 0 c -5.1 0 -17.6 -2.5 -25.5 -5.2 -39.2 -13 -69.8 -50.9 -73.2 -90.5 l -0.6 -7.3 -9.8 0 -9.9 0 0 3.9 c 0 5.9 2.7 20 5.6 29.2 12.7 40.1 44.8 72.1 84.6 84.4 9.3 2.8 22.2 5.3 28.6 5.4 l 4.2 0.1 0 -10 z  m 26.1 8.4 c 47.3 -8 86.8 -42.4 101.3 -88.3 2.7 -8.4 5.6 -24 5.6 -29.8 l 0 -3.3 -9.9 0 -9.8 0 -0.6 7.3 c -2.7 31.5 -23.3 63.5 -51.8 80.6 -13.5 8 -30.2 13.7 -44.1 14.8 l -6.8 0.6 0 9.8 0 9.9 3.3 0 c 1.9 0 7.6 -0.7 12.8 -1.6 z  m -26.1 -35.4 l 0 -8 5 0 5 0 0 8 0 8 2.8 0 c 5.1 0 20.7 -3.7 28.7 -6.9 32.8 -12.7 58.3 -45.7 62 -80.3 l 0.7 -6.8 -8.1 0 -8.1 0 0 -5 0 -5 8.1 0 8.1 0 -0.7 -6.7 c -1.8 -16.9 -10 -36.3 -21.3 -50.4 -16 -20 -41.3 -34 -65.8 -36.5 l -6.4 -0.7 0 8.2 0 8.1 -5 0 -5 0 0 -8.1 0 -8.2 -6.4 0.7 c -23.3 2.4 -49 16.1 -64.1 34.3 -12.9 15.5 -21.2 34.6 -23.1 53.2 l -0.7 6.1 8.2 0 8.1 0 0 5 0 5 -8.1 0 -8.1 0 0.7 6.8 c 3.8 35.3 29.2 67.9 63 80.8 7.6 2.8 22 6.2 27.3 6.3 l 3.2 0.1 0 -8 z  m -103.6 -97.2 c 0.2 -0.7 0.9 -5.3 1.5 -10.3 6.1 -46.7 47.3 -86.7 94.1 -91.3 l 7.5 -0.7 0.3 -9.9 0.3 -9.9 -8 0.7 c -15.2 1.2 -34.5 7.2 -49 15.2 -21.2 11.7 -40.8 31.7 -51.9 53 -7.4 14.4 -14.2 38.4 -14.2 50.5 l 0 3.9 9.5 0 c 6.8 0 9.7 -0.4 9.9 -1.2 z  m 236.2 -6.5 c -1.4 -16.4 -7.4 -35.4 -15.8 -49.9 -16.3 -28.5 -40.6 -48.7 -70.9 -58.8 -10.8 -3.6 -25.3 -6.6 -32.1 -6.6 l -3.9 0 0.3 9.8 0.3 9.7 7.4 0.7 c 37.6 3.8 72.9 30.9 87.7 67.3 3.9 9.3 7.4 24.3 7.4 31.3 l 0 4.2 10.1 0 10.2 0 -0.7 -7.7 z "/>
 </g>
 <g fill="red" stroke="red" stroke-width="20">
  <line x1="130" y1="130" x2="230" y2="230" />
  <line x1="130" y1="230" x2="230" y2="130" />
 </g>
</svg>
